<svg width="634" height="641" viewBox="0 0 634 641" fill="none" xmlns="http://www.w3.org/2000/svg">
<path d="M555.041 332.516C565.07 331.373 575.397 333.545 583.812 339.245C593.338 345.702 598.467 357.107 600.35 368.268C604.193 391.041 598.789 415.041 588.356 435.414C585.627 440.744 582.401 445.392 579.03 450.24C578.583 464.425 579.074 480.9 579.065 495.354L579.143 588.509C579.156 592.121 579.177 595.726 579.118 599.335C578.871 613.914 563.234 611.009 553.511 610.975L524.602 610.859L434.853 610.596L169.218 610.055C168.334 610.071 168.674 610.233 168.078 609.792C169.511 608.496 189.84 600.819 193.39 599.366L245.211 577.792C282.043 562.077 319.963 545.307 355.337 526.634C409.268 498.127 459.96 463.88 506.537 424.484C521.801 411.545 536.963 398.159 550.106 383.029C556.459 375.717 568.115 359.958 555.905 352.243C544.611 345.107 528.282 348.581 516.047 350.985C526.035 340.788 540.922 334.146 555.041 332.516Z" fill="#FAFAFA"/>
<path d="M316.102 45.3858C320.508 45.0503 320.383 45.5445 323.6 48.5598C337.907 61.9739 351.986 75.6499 366.237 89.1209C410.157 130.432 453.814 172.02 497.211 213.882C517.811 233.462 538.14 253.326 558.189 273.469L570.331 285.455C572.919 288.008 576.859 291.677 578.855 294.555C577.625 295.129 576.286 295.58 575.009 296.047C571.251 295.345 564.226 292.953 560.474 291.772C553.235 289.471 545.972 287.241 538.69 285.083C515.73 278.01 492.589 271.549 469.285 265.707C448.572 260.483 427.737 255.762 406.796 251.549C400.165 250.207 393.524 248.912 386.875 247.664C370.399 244.583 374.007 245.531 362.128 233.26C346.319 216.831 330.39 200.52 314.34 184.328C299.471 200.109 282.99 214.727 268.11 230.546C267.151 231.565 263.853 234.865 262.794 235.157C259.455 236.079 254.017 235.983 250.559 236.092C244.199 236.272 237.841 236.503 231.485 236.788C213.417 237.733 195.373 239.109 177.371 240.915C162.765 242.425 148.193 244.244 133.665 246.371C124.796 247.705 109.612 250.507 101.234 250.523L257.461 101.039L296.355 63.8521L307.707 53.075C310.03 50.8481 313.673 47.1304 316.102 45.3858Z" fill="#FAFAFA"/>
<path d="M76.94 270.006C78.9831 270.742 95.7328 287.976 98.6763 290.909L133.681 325.905C139.087 331.351 144.603 336.804 149.923 342.322C154.901 347.486 153.724 358.287 153.713 365.054L153.694 385.696L153.691 469.404L153.678 519.78C153.692 535.82 155.62 553.172 147.052 567.429C140.599 578.165 133.245 581.805 121.587 584.65L88.4033 593.407C82.3472 595.053 72.7267 598.443 66.4361 599.166C62.552 599.614 59.3992 594.653 59.3845 590.318C59.3126 568.675 59.3817 546.665 59.3949 525.032L59.4355 397.389L59.4465 328.049L59.4293 307.721C59.4174 301.721 59.04 294.547 60.9605 288.879C63.1513 282.412 71.592 274.216 76.94 270.006Z" fill="#FAFAFA"/>
<path d="M269.169 390.731C288.686 388.993 308.558 396.539 322.276 410.471C337.806 426.034 341.798 445.677 341.787 466.647C298.682 486.892 206.763 522.556 206.763 522.556C205.313 498.591 203.058 467.414 208.364 443.767C214.948 414.9 239.747 393.681 269.169 390.731Z" fill="#FAFAFA"/>
<path d="M271.583 288.902C297.002 287.516 318.73 307.006 320.11 332.431C321.491 357.855 302.002 379.583 276.582 380.96C251.168 382.337 229.449 362.847 228.069 337.429C226.689 312.012 246.169 290.287 271.583 288.902Z" fill="#FAFAFA"/>
<path d="M403 393.5C419.895 392.32 434.891 399.934 446.645 411.232C446.645 411.232 385.936 448.613 353.622 459.777C352.973 426.749 374.47 395.493 403 393.5Z" fill="#FAFAFA"/>
<path d="M398.299 328.284C414.106 327.53 427.534 339.733 428.291 355.545C429.051 371.354 416.853 384.788 401.044 385.552C385.231 386.315 371.791 374.109 371.034 358.293C370.273 342.475 382.484 329.038 398.299 328.284Z" fill="#FAFAFA"/>
</svg>
